<mxfile host="app.diagrams.net" modified="2020-07-21T12:14:49.816Z" agent="5.0 (Windows NT 10.0; Win64; x64) AppleWebKit/537.36 (KHTML, like Gecko) Chrome/83.0.4103.116 Safari/537.36" etag="5z68k3D6DOYa03e14N9s" version="13.4.9" type="github">
  <diagram id="kgpKYQtTHZ0yAKxKKP6v" name="Page-1">
    <mxGraphModel dx="2909" dy="1727" grid="1" gridSize="10" guides="1" tooltips="1" connect="1" arrows="1" fold="1" page="1" pageScale="1" pageWidth="850" pageHeight="1100" math="0" shadow="0">
      <root>
        <mxCell id="0" />
        <mxCell id="1" parent="0" />
        <mxCell id="m7c62PFlQVcXENg2-71l-1" value="CP4D Cluster" style="shape=umlLifeline;perimeter=lifelinePerimeter;whiteSpace=wrap;html=1;container=1;collapsible=0;recursiveResize=0;outlineConnect=0;fillColor=#ffe6cc;strokeColor=#d79b00;fontSize=14;fontStyle=1" parent="1" vertex="1">
          <mxGeometry x="110" y="31" width="100" height="840" as="geometry" />
        </mxCell>
        <mxCell id="m7c62PFlQVcXENg2-71l-2" value="submit catalog request" style="edgeStyle=orthogonalEdgeStyle;rounded=0;orthogonalLoop=1;jettySize=auto;html=1;fontSize=14;" parent="1" source="m7c62PFlQVcXENg2-71l-3" target="m7c62PFlQVcXENg2-71l-5" edge="1">
          <mxGeometry relative="1" as="geometry">
            <Array as="points">
              <mxPoint x="380" y="240" />
              <mxPoint x="380" y="240" />
            </Array>
          </mxGeometry>
        </mxCell>
        <mxCell id="m7c62PFlQVcXENg2-71l-3" value="Data Virtualization Layer" style="shape=umlLifeline;perimeter=lifelinePerimeter;whiteSpace=wrap;html=1;container=1;collapsible=0;recursiveResize=0;outlineConnect=0;fillColor=#ffe6cc;strokeColor=#d79b00;fontSize=14;fontStyle=1" parent="1" vertex="1">
          <mxGeometry x="240" y="31" width="130" height="840" as="geometry" />
        </mxCell>
        <mxCell id="IsnBaX-UXQkgkAbF29E4-29" value="&lt;ul style=&quot;font-size: 14px;&quot;&gt;&lt;li style=&quot;font-size: 14px;&quot;&gt;&lt;font style=&quot;font-size: 14px;&quot;&gt;get lineage reports [Data lineage, Business lineage]&lt;/font&gt;&lt;/li&gt;&lt;li style=&quot;font-size: 14px;&quot;&gt;&lt;font style=&quot;font-size: 14px;&quot;&gt;&lt;span style=&quot;color: rgb(50, 50, 50); font-size: 14px;&quot;&gt;Data lineage reports show the movement of data through a job or multiple jobs,&amp;nbsp;&lt;/span&gt;&lt;/font&gt;&lt;/li&gt;&lt;li style=&quot;font-size: 14px;&quot;&gt;&lt;span style=&quot;color: rgb(50, 50, 50); font-size: 14px;&quot;&gt;Business lineage reports show a simplified view of lineage that highlights the transformation&amp;nbsp;&lt;/span&gt;and aggregation of data&lt;/li&gt;&lt;/ul&gt;" style="edgeStyle=orthogonalEdgeStyle;rounded=0;orthogonalLoop=1;jettySize=auto;html=1;align=left;fontSize=14;" parent="1" target="IsnBaX-UXQkgkAbF29E4-28" edge="1">
          <mxGeometry x="0.7499" relative="1" as="geometry">
            <mxPoint x="290" y="1697.5926106770833" as="targetPoint" />
            <Array as="points">
              <mxPoint x="-400" y="2157" />
              <mxPoint x="-400" y="2157" />
            </Array>
            <mxPoint as="offset" />
            <mxPoint x="469.5" y="2157" as="sourcePoint" />
          </mxGeometry>
        </mxCell>
        <mxCell id="m7c62PFlQVcXENg2-71l-5" value="WKC" style="shape=umlLifeline;perimeter=lifelinePerimeter;whiteSpace=wrap;html=1;container=1;collapsible=0;recursiveResize=0;outlineConnect=0;fillColor=#ffe6cc;strokeColor=#d79b00;fontSize=14;fontStyle=1" parent="1" vertex="1">
          <mxGeometry x="420" y="31" width="100" height="2330" as="geometry" />
        </mxCell>
        <mxCell id="m7c62PFlQVcXENg2-71l-6" value="&lt;font style=&quot;font-size: 14px;&quot;&gt;preinstallation tasks -&amp;nbsp;&lt;span style=&quot;color: rgb(50, 50, 50); font-size: 14px;&quot;&gt;adjust the timeout settings on your load balancer node&lt;/span&gt;&lt;/font&gt;" style="edgeStyle=orthogonalEdgeStyle;rounded=0;orthogonalLoop=1;jettySize=auto;html=1;fontSize=14;" parent="1" source="m7c62PFlQVcXENg2-71l-9" target="m7c62PFlQVcXENg2-71l-1" edge="1">
          <mxGeometry relative="1" as="geometry">
            <Array as="points">
              <mxPoint x="50" y="100" />
              <mxPoint x="50" y="100" />
            </Array>
          </mxGeometry>
        </mxCell>
        <mxCell id="m7c62PFlQVcXENg2-71l-9" value="&lt;font style=&quot;font-size: 14px;&quot;&gt;Admin with root privilege&lt;/font&gt;" style="shape=umlActor;verticalLabelPosition=bottom;verticalAlign=top;html=1;fontSize=14;" parent="1" vertex="1">
          <mxGeometry x="-490" width="30" height="60" as="geometry" />
        </mxCell>
        <mxCell id="m7c62PFlQVcXENg2-71l-12" value="approve requests to publish them" style="edgeStyle=orthogonalEdgeStyle;rounded=0;orthogonalLoop=1;jettySize=auto;html=1;fontSize=14;exitX=0.5;exitY=0.5;exitDx=0;exitDy=0;exitPerimeter=0;" parent="1" source="m7c62PFlQVcXENg2-71l-13" edge="1">
          <mxGeometry x="0.6568" y="-380" relative="1" as="geometry">
            <Array as="points">
              <mxPoint x="-495" y="1730" />
            </Array>
            <mxPoint x="-380" y="-380" as="offset" />
            <mxPoint x="469.5" y="1730" as="targetPoint" />
          </mxGeometry>
        </mxCell>
        <mxCell id="m7c62PFlQVcXENg2-71l-13" value="data steward" style="shape=umlActor;verticalLabelPosition=bottom;verticalAlign=top;html=1;fontSize=14;" parent="1" vertex="1">
          <mxGeometry x="-625" y="1700" width="30" height="60" as="geometry" />
        </mxCell>
        <mxCell id="m7c62PFlQVcXENg2-71l-14" value="run automated discovery/quick scan" style="edgeStyle=orthogonalEdgeStyle;rounded=0;orthogonalLoop=1;jettySize=auto;html=1;fontSize=14;exitX=0.5;exitY=0.5;exitDx=0;exitDy=0;exitPerimeter=0;" parent="1" source="m7c62PFlQVcXENg2-71l-16" edge="1">
          <mxGeometry x="-0.256" relative="1" as="geometry">
            <Array as="points">
              <mxPoint x="-635" y="865" />
            </Array>
            <mxPoint as="offset" />
            <mxPoint x="470" y="865" as="targetPoint" />
            <mxPoint x="-635" y="876" as="sourcePoint" />
          </mxGeometry>
        </mxCell>
        <mxCell id="m7c62PFlQVcXENg2-71l-16" value="user with Data Quality Analyst role" style="shape=umlActor;verticalLabelPosition=bottom;verticalAlign=top;html=1;fontSize=14;" parent="1" vertex="1">
          <mxGeometry x="-650" y="831" width="30" height="60" as="geometry" />
        </mxCell>
        <mxCell id="m7c62PFlQVcXENg2-71l-96" value="access source systems &lt;br&gt;through connections" style="edgeStyle=orthogonalEdgeStyle;rounded=0;orthogonalLoop=1;jettySize=auto;html=1;strokeWidth=1;fontSize=14;" parent="1" source="m7c62PFlQVcXENg2-71l-17" target="m7c62PFlQVcXENg2-71l-3" edge="1">
          <mxGeometry relative="1" as="geometry">
            <Array as="points">
              <mxPoint x="160" y="190" />
              <mxPoint x="160" y="190" />
            </Array>
          </mxGeometry>
        </mxCell>
        <mxCell id="m7c62PFlQVcXENg2-71l-17" value="source systems" style="shape=umlLifeline;perimeter=lifelinePerimeter;whiteSpace=wrap;html=1;container=1;collapsible=0;recursiveResize=0;outlineConnect=0;fillColor=#dae8fc;strokeColor=#6c8ebf;fontSize=14;fontStyle=1" parent="1" vertex="1">
          <mxGeometry x="-20" y="30" width="100" height="850" as="geometry" />
        </mxCell>
        <mxCell id="m7c62PFlQVcXENg2-71l-19" value="&lt;ol style=&quot;font-size: 14px;&quot;&gt;&lt;li style=&quot;font-size: 14px;&quot;&gt;&lt;font style=&quot;font-size: 14px;&quot;&gt;&lt;font style=&quot;font-size: 14px;&quot;&gt;review&amp;nbsp;&lt;span style=&quot;color: rgb(50, 50, 50); font-size: 14px;&quot;&gt;predefined data rule definitions is available in the default catalog&lt;/span&gt;&lt;/font&gt;&lt;/font&gt;&lt;/li&gt;&lt;li style=&quot;font-size: 14px;&quot;&gt;&lt;font style=&quot;font-size: 14px;&quot;&gt;create data rule definitions -&amp;nbsp;&lt;span style=&quot;color: rgb(50, 50, 50); font-size: 14px;&quot;&gt;logical expressions using supported operators&lt;br style=&quot;font-size: 14px;&quot;&gt;&lt;/span&gt;&lt;/font&gt;&lt;/li&gt;&lt;li style=&quot;font-size: 14px;&quot;&gt;&lt;font style=&quot;font-size: 14px;&quot;&gt;&lt;span style=&quot;color: rgb(50, 50, 50); font-size: 14px;&quot;&gt;Data rules apply the logic specified in the selected data rule definition to the physical data.&lt;/span&gt;&lt;/font&gt;&lt;/li&gt;&lt;li style=&quot;font-size: 14px;&quot;&gt;&lt;font style=&quot;font-size: 14px;&quot;&gt;create ruleset definitions -&amp;nbsp;&lt;/font&gt;select more than one data rule definition or data rule&lt;/li&gt;&lt;li style=&quot;font-size: 14px;&quot;&gt;&lt;font style=&quot;font-size: 14px;&quot;&gt;&lt;span style=&quot;color: rgb(50, 50, 50); font-size: 14px;&quot;&gt;Rule sets are created from rule set definitions, which consist of many data rule definitions or data rules.&amp;nbsp;&lt;/span&gt;&lt;/font&gt;&lt;/li&gt;&lt;/ol&gt;" style="edgeStyle=orthogonalEdgeStyle;rounded=0;orthogonalLoop=1;jettySize=auto;html=1;fontSize=14;align=left;exitX=0.5;exitY=0.5;exitDx=0;exitDy=0;exitPerimeter=0;" parent="1" source="m7c62PFlQVcXENg2-71l-20" edge="1">
          <mxGeometry x="-0.4026" y="-1" relative="1" as="geometry">
            <Array as="points">
              <mxPoint x="-498" y="1560" />
            </Array>
            <mxPoint x="469.5" y="1560" as="targetPoint" />
            <mxPoint as="offset" />
          </mxGeometry>
        </mxCell>
        <mxCell id="m7c62PFlQVcXENg2-71l-87" style="edgeStyle=orthogonalEdgeStyle;rounded=0;orthogonalLoop=1;jettySize=auto;html=1;strokeWidth=1;fontSize=14;exitX=0.5;exitY=0.5;exitDx=0;exitDy=0;exitPerimeter=0;" parent="1" source="m7c62PFlQVcXENg2-71l-20" edge="1">
          <mxGeometry relative="1" as="geometry">
            <mxPoint x="470" y="1484" as="targetPoint" />
            <Array as="points">
              <mxPoint x="-410" y="1559" />
              <mxPoint x="-410" y="1484" />
            </Array>
            <mxPoint x="-483.5" y="1544" as="sourcePoint" />
          </mxGeometry>
        </mxCell>
        <mxCell id="m7c62PFlQVcXENg2-71l-88" value="import/export rules and definitions" style="edgeLabel;html=1;align=center;verticalAlign=middle;resizable=0;points=[];fontSize=14;" parent="m7c62PFlQVcXENg2-71l-87" vertex="1" connectable="0">
          <mxGeometry x="-0.4945" y="-2" relative="1" as="geometry">
            <mxPoint x="129.5" as="offset" />
          </mxGeometry>
        </mxCell>
        <mxCell id="m7c62PFlQVcXENg2-71l-91" value="&lt;div style=&quot;text-align: left; font-size: 14px;&quot;&gt;create automation rules to&amp;nbsp;&lt;span style=&quot;color: rgb(50, 50, 50); font-size: 14px;&quot;&gt;automate the process of governing your data&lt;/span&gt;&lt;/div&gt;&lt;font style=&quot;font-size: 14px;&quot;&gt;&lt;div style=&quot;text-align: left; font-size: 14px;&quot;&gt;&lt;span style=&quot;color: rgb(50, 50, 50); font-size: 14px;&quot;&gt;run automation rules&lt;/span&gt;&lt;/div&gt;&lt;/font&gt;" style="edgeStyle=orthogonalEdgeStyle;rounded=0;orthogonalLoop=1;jettySize=auto;html=1;strokeWidth=1;fontSize=14;exitX=0.5;exitY=0.5;exitDx=0;exitDy=0;exitPerimeter=0;" parent="1" source="m7c62PFlQVcXENg2-71l-20" edge="1">
          <mxGeometry x="-0.0057" relative="1" as="geometry">
            <mxPoint x="469.5" y="1644" as="targetPoint" />
            <Array as="points">
              <mxPoint x="-410" y="1559" />
              <mxPoint x="-410" y="1644" />
            </Array>
            <mxPoint x="1" as="offset" />
            <mxPoint x="-483.5" y="1574" as="sourcePoint" />
          </mxGeometry>
        </mxCell>
        <mxCell id="m7c62PFlQVcXENg2-71l-20" value="&lt;font style=&quot;font-size: 14px;&quot;&gt;possesses&lt;br style=&quot;font-size: 14px;&quot;&gt;&lt;span style=&quot;color: rgb(50, 50, 50); background-color: rgb(255, 255, 255); font-size: 14px;&quot;&gt;Manage governance &lt;br style=&quot;font-size: 14px;&quot;&gt;artifact permission&lt;/span&gt;&lt;/font&gt;" style="shape=umlActor;verticalLabelPosition=bottom;verticalAlign=top;html=1;fontSize=14;" parent="1" vertex="1">
          <mxGeometry x="-628.5" y="1529" width="30" height="60" as="geometry" />
        </mxCell>
        <mxCell id="m7c62PFlQVcXENg2-71l-37" value="&lt;font style=&quot;font-size: 14px;&quot;&gt;Install WKC using cpd tool&lt;/font&gt;" style="edgeStyle=orthogonalEdgeStyle;rounded=0;orthogonalLoop=1;jettySize=auto;html=1;fontSize=14;exitX=0.5;exitY=0.5;exitDx=0;exitDy=0;exitPerimeter=0;" parent="1" source="m7c62PFlQVcXENg2-71l-22" edge="1">
          <mxGeometry relative="1" as="geometry">
            <Array as="points">
              <mxPoint x="-410" y="279" />
              <mxPoint x="-410" y="292" />
            </Array>
            <mxPoint x="-475" y="268" as="sourcePoint" />
            <mxPoint x="159.5" y="292.0000000000002" as="targetPoint" />
          </mxGeometry>
        </mxCell>
        <mxCell id="m7c62PFlQVcXENg2-71l-38" style="edgeStyle=orthogonalEdgeStyle;rounded=0;orthogonalLoop=1;jettySize=auto;html=1;fontSize=14;exitX=0.5;exitY=0.5;exitDx=0;exitDy=0;exitPerimeter=0;" parent="1" source="m7c62PFlQVcXENg2-71l-22" edge="1">
          <mxGeometry relative="1" as="geometry">
            <Array as="points">
              <mxPoint x="-410" y="279" />
              <mxPoint x="-410" y="321" />
            </Array>
            <mxPoint x="-475.03448275862047" y="300" as="sourcePoint" />
            <mxPoint x="469.5" y="321.0000000000002" as="targetPoint" />
          </mxGeometry>
        </mxCell>
        <mxCell id="m7c62PFlQVcXENg2-71l-39" value="&lt;font style=&quot;font-size: 14px;&quot;&gt;setup the default catalog, if LDAP is used, set for quick scan&lt;/font&gt;" style="edgeLabel;html=1;align=center;verticalAlign=middle;resizable=0;points=[];fontSize=14;" parent="m7c62PFlQVcXENg2-71l-38" vertex="1" connectable="0">
          <mxGeometry x="-0.1003" y="-1" relative="1" as="geometry">
            <mxPoint x="-8.670000000000002" y="-1" as="offset" />
          </mxGeometry>
        </mxCell>
        <mxCell id="m7c62PFlQVcXENg2-71l-95" value="create virtual tables" style="edgeStyle=orthogonalEdgeStyle;rounded=0;orthogonalLoop=1;jettySize=auto;html=1;strokeWidth=1;fontSize=14;exitX=0.5;exitY=0.5;exitDx=0;exitDy=0;exitPerimeter=0;" parent="1" source="m7c62PFlQVcXENg2-71l-22" target="m7c62PFlQVcXENg2-71l-3" edge="1">
          <mxGeometry relative="1" as="geometry">
            <Array as="points">
              <mxPoint x="-410" y="279" />
              <mxPoint x="-410" y="220" />
            </Array>
          </mxGeometry>
        </mxCell>
        <mxCell id="m7c62PFlQVcXENg2-71l-22" value="&lt;font style=&quot;font-size: 14px&quot;&gt;admin of the &lt;br&gt;project(namespace)&lt;/font&gt;" style="shape=umlActor;verticalLabelPosition=bottom;verticalAlign=top;html=1;outlineConnect=0;fontSize=14;" parent="1" vertex="1">
          <mxGeometry x="-490" y="249" width="30" height="60" as="geometry" />
        </mxCell>
        <mxCell id="m7c62PFlQVcXENg2-71l-33" style="edgeStyle=orthogonalEdgeStyle;rounded=0;orthogonalLoop=1;jettySize=auto;html=1;fontSize=14;" parent="1" edge="1">
          <mxGeometry relative="1" as="geometry">
            <Array as="points">
              <mxPoint x="-9.5" y="150" />
              <mxPoint x="-9.5" y="150" />
            </Array>
            <mxPoint x="-459.5" y="150.00000000000023" as="sourcePoint" />
            <mxPoint x="160" y="150.00000000000023" as="targetPoint" />
          </mxGeometry>
        </mxCell>
        <mxCell id="m7c62PFlQVcXENg2-71l-35" value="&lt;font style=&quot;font-size: 14px;&quot;&gt;Set the timezone for the master node,&lt;br style=&quot;font-size: 14px;&quot;&gt;run the cpd adm command&lt;/font&gt;" style="edgeLabel;html=1;align=left;verticalAlign=middle;resizable=0;points=[];fontSize=14;" parent="m7c62PFlQVcXENg2-71l-33" vertex="1" connectable="0">
          <mxGeometry x="-0.0648" y="1" relative="1" as="geometry">
            <mxPoint x="-149.66" y="1" as="offset" />
          </mxGeometry>
        </mxCell>
        <mxCell id="m7c62PFlQVcXENg2-71l-30" value="&lt;font style=&quot;font-size: 14px;&quot;&gt;Openshift cluster admin&lt;/font&gt;" style="shape=umlActor;verticalLabelPosition=bottom;verticalAlign=top;html=1;outlineConnect=0;fontSize=14;" parent="1" vertex="1">
          <mxGeometry x="-490" y="120" width="30" height="60" as="geometry" />
        </mxCell>
        <mxCell id="m7c62PFlQVcXENg2-71l-42" style="edgeStyle=orthogonalEdgeStyle;rounded=0;orthogonalLoop=1;jettySize=auto;html=1;fontSize=14;exitX=0.5;exitY=0.5;exitDx=0;exitDy=0;exitPerimeter=0;entryX=0.498;entryY=0.098;entryDx=0;entryDy=0;entryPerimeter=0;" parent="1" source="m7c62PFlQVcXENg2-71l-22" target="m7c62PFlQVcXENg2-71l-5" edge="1">
          <mxGeometry relative="1" as="geometry">
            <mxPoint x="-475" y="340" as="sourcePoint" />
            <mxPoint x="-50" y="370" as="targetPoint" />
            <Array as="points">
              <mxPoint x="-410" y="279" />
              <mxPoint x="-410" y="259" />
            </Array>
          </mxGeometry>
        </mxCell>
        <mxCell id="m7c62PFlQVcXENg2-71l-43" value="&lt;span style=&quot;font-size: 14px; background-color: rgb(248, 249, 250);&quot;&gt;(optional) scale up the service, review analysis db settings&lt;/span&gt;" style="edgeLabel;html=1;align=center;verticalAlign=middle;resizable=0;points=[];fontSize=14;" parent="m7c62PFlQVcXENg2-71l-42" vertex="1" connectable="0">
          <mxGeometry x="0.1347" y="-1" relative="1" as="geometry">
            <mxPoint as="offset" />
          </mxGeometry>
        </mxCell>
        <mxCell id="m7c62PFlQVcXENg2-71l-47" style="edgeStyle=orthogonalEdgeStyle;rounded=0;orthogonalLoop=1;jettySize=auto;html=1;fontSize=14;exitX=0.5;exitY=0.5;exitDx=0;exitDy=0;exitPerimeter=0;" parent="1" edge="1">
          <mxGeometry relative="1" as="geometry">
            <Array as="points">
              <mxPoint x="-460" y="421" />
              <mxPoint x="-460" y="392" />
              <mxPoint x="470" y="392" />
            </Array>
            <mxPoint x="-515.0000000000002" y="421" as="sourcePoint" />
            <mxPoint x="470" y="392" as="targetPoint" />
          </mxGeometry>
        </mxCell>
        <mxCell id="m7c62PFlQVcXENg2-71l-48" value="&lt;div style=&quot;text-align: left; font-size: 14px;&quot;&gt;create catalogs, add assets and collaborators&lt;/div&gt;&lt;div style=&quot;text-align: left; font-size: 14px;&quot;&gt;define asset access - public/private&lt;/div&gt;" style="edgeLabel;html=1;align=center;verticalAlign=middle;resizable=0;points=[];fontSize=14;" parent="m7c62PFlQVcXENg2-71l-47" vertex="1" connectable="0">
          <mxGeometry x="0.4632" y="-283" relative="1" as="geometry">
            <mxPoint x="-380" y="-283" as="offset" />
          </mxGeometry>
        </mxCell>
        <mxCell id="m7c62PFlQVcXENg2-71l-54" style="edgeStyle=orthogonalEdgeStyle;rounded=0;orthogonalLoop=1;jettySize=auto;html=1;strokeWidth=1;fontSize=14;exitX=0.5;exitY=0.5;exitDx=0;exitDy=0;exitPerimeter=0;" parent="1" source="m7c62PFlQVcXENg2-71l-44" edge="1">
          <mxGeometry relative="1" as="geometry">
            <Array as="points">
              <mxPoint x="-515" y="420" />
              <mxPoint x="-460" y="420" />
              <mxPoint x="-460" y="447" />
            </Array>
            <mxPoint x="-475.03448275862047" y="446" as="sourcePoint" />
            <mxPoint x="469.5" y="447.0000000000002" as="targetPoint" />
          </mxGeometry>
        </mxCell>
        <mxCell id="m7c62PFlQVcXENg2-71l-55" value="add new classifications/import from a csv file &lt;br&gt;(3 predefined classifications: SPI, PII, confidential),&amp;nbsp;&lt;br style=&quot;font-size: 14px&quot;&gt;assign the classification to a category, send for approval" style="edgeLabel;html=1;align=left;verticalAlign=middle;resizable=0;points=[];fontSize=14;" parent="m7c62PFlQVcXENg2-71l-54" vertex="1" connectable="0">
          <mxGeometry x="-0.036" y="-1" relative="1" as="geometry">
            <mxPoint x="-358" y="-1" as="offset" />
          </mxGeometry>
        </mxCell>
        <mxCell id="m7c62PFlQVcXENg2-71l-44" value="&lt;font style=&quot;font-size: 14px&quot;&gt;User with manage &lt;br&gt;catalog permission&lt;/font&gt;" style="shape=umlActor;verticalLabelPosition=bottom;verticalAlign=top;html=1;outlineConnect=0;fontSize=14;" parent="1" vertex="1">
          <mxGeometry x="-530" y="399" width="30" height="60" as="geometry" />
        </mxCell>
        <mxCell id="m7c62PFlQVcXENg2-71l-53" style="edgeStyle=orthogonalEdgeStyle;rounded=0;orthogonalLoop=1;jettySize=auto;html=1;fontSize=14;dashed=1;strokeWidth=1;exitX=0.5;exitY=1;exitDx=0;exitDy=0;" parent="1" edge="1">
          <mxGeometry relative="1" as="geometry">
            <mxPoint x="-170" y="380" as="targetPoint" />
            <Array as="points">
              <mxPoint x="-885" y="363" />
              <mxPoint x="-170" y="363" />
            </Array>
            <mxPoint x="-885.0000000000002" y="210.00000000000023" as="sourcePoint" />
          </mxGeometry>
        </mxCell>
        <mxCell id="m7c62PFlQVcXENg2-71l-51" value="&lt;h1 style=&quot;font-size: 14px;&quot;&gt;&lt;ul style=&quot;font-size: 14px;&quot;&gt;&lt;li style=&quot;font-size: 14px;&quot;&gt;&lt;font style=&quot;font-size: 14px; font-weight: normal;&quot;&gt;Types of assets&lt;/font&gt;&lt;/li&gt;&lt;li style=&quot;font-size: 14px;&quot;&gt;&lt;font style=&quot;font-size: 14px; font-weight: normal;&quot;&gt;Files from your local system, including structured data, unstructured data, and images.&lt;/font&gt;&lt;/li&gt;&lt;li style=&quot;font-size: 14px;&quot;&gt;&lt;font style=&quot;font-size: 14px; font-weight: normal;&quot;&gt;Connections to data sources.&amp;nbsp;&lt;/font&gt;&lt;/li&gt;&lt;li style=&quot;font-size: 14px;&quot;&gt;&lt;span style=&quot;font-weight: normal; font-size: 14px;&quot;&gt;Data assets from a connection to a data source.&lt;/span&gt;&lt;/li&gt;&lt;li style=&quot;font-size: 14px;&quot;&gt;&lt;font style=&quot;font-size: 14px; font-weight: normal;&quot;&gt;Folder assets from a connection to a file system.&lt;/font&gt;&lt;/li&gt;&lt;li style=&quot;font-size: 14px;&quot;&gt;&lt;font style=&quot;font-size: 14px; font-weight: normal;&quot;&gt;Data assets from analytics projects.&lt;/font&gt;&lt;/li&gt;&lt;li style=&quot;font-size: 14px;&quot;&gt;&lt;font style=&quot;font-size: 14px; font-weight: normal;&quot;&gt;Notebooks from analytics projects.&lt;/font&gt;&lt;/li&gt;&lt;li style=&quot;font-size: 14px;&quot;&gt;&lt;font style=&quot;font-size: 14px; font-weight: normal;&quot;&gt;Trained Watson Machine Learning models from analytics projects.&lt;/font&gt;&lt;/li&gt;&lt;li style=&quot;font-size: 14px;&quot;&gt;&lt;font style=&quot;font-size: 14px; font-weight: normal;&quot;&gt;Dashboards from analytics projects.&lt;/font&gt;&lt;/li&gt;&lt;/ul&gt;&lt;/h1&gt;" style="text;html=1;strokeColor=#666666;fillColor=#f5f5f5;spacing=5;spacingTop=-20;whiteSpace=wrap;overflow=hidden;rounded=0;fontSize=14;fontColor=#333333;" parent="1" vertex="1">
          <mxGeometry x="-1040" y="-40" width="310" height="270" as="geometry" />
        </mxCell>
        <mxCell id="m7c62PFlQVcXENg2-71l-58" style="edgeStyle=orthogonalEdgeStyle;rounded=0;orthogonalLoop=1;jettySize=auto;html=1;strokeWidth=1;fontSize=14;dashed=1;" parent="1" source="m7c62PFlQVcXENg2-71l-57" edge="1">
          <mxGeometry relative="1" as="geometry">
            <mxPoint x="-150" y="470" as="targetPoint" />
          </mxGeometry>
        </mxCell>
        <mxCell id="m7c62PFlQVcXENg2-71l-63" style="edgeStyle=orthogonalEdgeStyle;rounded=0;orthogonalLoop=1;jettySize=auto;html=1;strokeWidth=1;fontSize=14;dashed=1;" parent="1" source="m7c62PFlQVcXENg2-71l-57" edge="1">
          <mxGeometry relative="1" as="geometry">
            <mxPoint x="-470" y="590" as="targetPoint" />
            <Array as="points">
              <mxPoint x="-470" y="520" />
              <mxPoint x="-470" y="590" />
            </Array>
          </mxGeometry>
        </mxCell>
        <mxCell id="m7c62PFlQVcXENg2-71l-73" value="" style="edgeStyle=orthogonalEdgeStyle;rounded=0;orthogonalLoop=1;jettySize=auto;html=1;strokeWidth=1;fontSize=14;dashed=1;" parent="1" source="m7c62PFlQVcXENg2-71l-57" edge="1">
          <mxGeometry x="0.661" relative="1" as="geometry">
            <mxPoint x="-40" y="700" as="targetPoint" />
            <Array as="points">
              <mxPoint x="-40" y="520" />
            </Array>
            <mxPoint as="offset" />
          </mxGeometry>
        </mxCell>
        <mxCell id="m7c62PFlQVcXENg2-71l-84" style="edgeStyle=orthogonalEdgeStyle;rounded=0;orthogonalLoop=1;jettySize=auto;html=1;strokeWidth=1;fontSize=14;dashed=1;" parent="1" source="m7c62PFlQVcXENg2-71l-57" edge="1">
          <mxGeometry relative="1" as="geometry">
            <mxPoint x="-270" y="1100" as="targetPoint" />
            <Array as="points">
              <mxPoint x="-790" y="520" />
              <mxPoint x="-790" y="1050" />
              <mxPoint x="-270" y="1050" />
            </Array>
          </mxGeometry>
        </mxCell>
        <mxCell id="m7c62PFlQVcXENg2-71l-57" value="local storage" style="shape=dataStorage;whiteSpace=wrap;html=1;fontSize=14;" parent="1" vertex="1">
          <mxGeometry x="-710" y="500" width="105" height="40" as="geometry" />
        </mxCell>
        <mxCell id="m7c62PFlQVcXENg2-71l-60" style="edgeStyle=orthogonalEdgeStyle;rounded=0;orthogonalLoop=1;jettySize=auto;html=1;strokeWidth=1;fontSize=14;" parent="1" source="m7c62PFlQVcXENg2-71l-59" target="m7c62PFlQVcXENg2-71l-5" edge="1">
          <mxGeometry relative="1" as="geometry">
            <Array as="points">
              <mxPoint x="240" y="600" />
              <mxPoint x="240" y="600" />
            </Array>
          </mxGeometry>
        </mxCell>
        <mxCell id="m7c62PFlQVcXENg2-71l-61" value="add local file as data asset" style="edgeLabel;html=1;align=center;verticalAlign=middle;resizable=0;points=[];fontSize=14;" parent="m7c62PFlQVcXENg2-71l-60" vertex="1" connectable="0">
          <mxGeometry x="-0.7923" y="1" relative="1" as="geometry">
            <mxPoint as="offset" />
          </mxGeometry>
        </mxCell>
        <mxCell id="m7c62PFlQVcXENg2-71l-59" value="user with admin or &lt;br style=&quot;font-size: 14px;&quot;&gt;editor role in the catalog" style="shape=umlActor;verticalLabelPosition=bottom;verticalAlign=top;html=1;outlineConnect=0;fontSize=14;" parent="1" vertex="1">
          <mxGeometry x="-650" y="570" width="30" height="60" as="geometry" />
        </mxCell>
        <mxCell id="m7c62PFlQVcXENg2-71l-62" value="save file to catalog storage&lt;br style=&quot;font-size: 14px&quot;&gt;If format is CSV/Avro/Parquet and uncompressed, &lt;br&gt;perform automatic profiling" style="edgeStyle=orthogonalEdgeStyle;rounded=0;orthogonalLoop=1;jettySize=auto;html=1;strokeWidth=1;fontSize=14;align=left;" parent="1" source="m7c62PFlQVcXENg2-71l-5" target="m7c62PFlQVcXENg2-71l-5" edge="1">
          <mxGeometry relative="1" as="geometry">
            <Array as="points">
              <mxPoint x="560" y="610" />
              <mxPoint x="560" y="670" />
            </Array>
          </mxGeometry>
        </mxCell>
        <mxCell id="m7c62PFlQVcXENg2-71l-65" style="edgeStyle=orthogonalEdgeStyle;rounded=0;orthogonalLoop=1;jettySize=auto;html=1;dashed=1;strokeWidth=1;fontSize=14;" parent="1" source="m7c62PFlQVcXENg2-71l-64" edge="1">
          <mxGeometry relative="1" as="geometry">
            <mxPoint x="590" y="620" as="targetPoint" />
          </mxGeometry>
        </mxCell>
        <mxCell id="m7c62PFlQVcXENg2-71l-64" value="Automated profiling should be enabled" style="shape=note;whiteSpace=wrap;html=1;backgroundOutline=1;darkOpacity=0.05;fontSize=14;" parent="1" vertex="1">
          <mxGeometry x="710" y="450" width="100" height="120" as="geometry" />
        </mxCell>
        <mxCell id="m7c62PFlQVcXENg2-71l-66" value="assign data classes (predefined+custom)" style="edgeStyle=orthogonalEdgeStyle;rounded=0;orthogonalLoop=1;jettySize=auto;html=1;strokeWidth=1;fontSize=14;align=left;" parent="1" source="m7c62PFlQVcXENg2-71l-5" target="m7c62PFlQVcXENg2-71l-5" edge="1">
          <mxGeometry relative="1" as="geometry">
            <Array as="points">
              <mxPoint x="560" y="800" />
              <mxPoint x="560" y="850" />
            </Array>
          </mxGeometry>
        </mxCell>
        <mxCell id="m7c62PFlQVcXENg2-71l-68" value="&lt;div style=&quot;text-align: left; font-size: 14px;&quot;&gt;define new data classes, assign a primary category and send for publish&lt;/div&gt;&lt;div style=&quot;text-align: left; font-size: 14px;&quot;&gt;define matching method:&lt;/div&gt;&lt;div style=&quot;text-align: left; font-size: 14px;&quot;&gt;1. no automatic matching&lt;/div&gt;&lt;div style=&quot;text-align: left; font-size: 14px;&quot;&gt;2. match to a list of values or reference data set&lt;/div&gt;&lt;div style=&quot;text-align: left; font-size: 14px;&quot;&gt;3. match using regex&lt;/div&gt;&lt;div style=&quot;text-align: left; font-size: 14px;&quot;&gt;4. match using a java class&lt;/div&gt;&lt;div style=&quot;text-align: left; font-size: 14px;&quot;&gt;5. define a threshold value&lt;/div&gt;" style="edgeStyle=orthogonalEdgeStyle;rounded=0;orthogonalLoop=1;jettySize=auto;html=1;strokeWidth=1;fontSize=14;exitX=0.5;exitY=0.5;exitDx=0;exitDy=0;exitPerimeter=0;" parent="1" source="m7c62PFlQVcXENg2-71l-67" target="m7c62PFlQVcXENg2-71l-5" edge="1">
          <mxGeometry x="-0.2992" relative="1" as="geometry">
            <Array as="points">
              <mxPoint x="-590" y="740" />
              <mxPoint x="-590" y="790" />
            </Array>
            <mxPoint as="offset" />
          </mxGeometry>
        </mxCell>
        <mxCell id="m7c62PFlQVcXENg2-71l-74" value="add reference data set (csv) and send for publish" style="edgeStyle=orthogonalEdgeStyle;rounded=0;orthogonalLoop=1;jettySize=auto;html=1;strokeWidth=1;fontSize=14;exitX=0.5;exitY=0.5;exitDx=0;exitDy=0;exitPerimeter=0;" parent="1" source="m7c62PFlQVcXENg2-71l-67" edge="1">
          <mxGeometry relative="1" as="geometry">
            <Array as="points">
              <mxPoint x="-590" y="740" />
              <mxPoint x="-590" y="690" />
              <mxPoint x="470" y="690" />
            </Array>
            <mxPoint x="470" y="690" as="targetPoint" />
          </mxGeometry>
        </mxCell>
        <mxCell id="m7c62PFlQVcXENg2-71l-67" value="user with&lt;br style=&quot;font-size: 14px;&quot;&gt;&lt;span style=&quot;color: rgb(50, 50, 50); background-color: rgb(255, 255, 255); font-size: 14px;&quot;&gt;Manage governance artifact permission&lt;/span&gt;" style="shape=umlActor;verticalLabelPosition=bottom;verticalAlign=top;html=1;outlineConnect=0;fontSize=14;" parent="1" vertex="1">
          <mxGeometry x="-650" y="710" width="30" height="60" as="geometry" />
        </mxCell>
        <mxCell id="m7c62PFlQVcXENg2-71l-75" value="&lt;div style=&quot;font-size: 14px;&quot;&gt;run column analysis (assign data type, data class and format)&lt;/div&gt;&lt;div style=&quot;font-size: 14px;&quot;&gt;assign business terms&lt;/div&gt;&lt;div style=&quot;font-size: 14px;&quot;&gt;analyze data quality (missing values, data class violations)&lt;/div&gt;&lt;div style=&quot;font-size: 14px;&quot;&gt;publish results to default catalog&lt;/div&gt;" style="edgeStyle=orthogonalEdgeStyle;rounded=0;orthogonalLoop=1;jettySize=auto;html=1;strokeWidth=1;fontSize=14;align=left;" parent="1" source="m7c62PFlQVcXENg2-71l-5" target="m7c62PFlQVcXENg2-71l-5" edge="1">
          <mxGeometry relative="1" as="geometry">
            <Array as="points">
              <mxPoint x="560" y="880" />
              <mxPoint x="560" y="950" />
            </Array>
          </mxGeometry>
        </mxCell>
        <mxCell id="m7c62PFlQVcXENg2-71l-77" value="&lt;font style=&quot;font-size: 14px;&quot;&gt;&lt;b style=&quot;font-size: 14px;&quot;&gt;perform further tasks&lt;/b&gt; -&amp;nbsp;&lt;span style=&quot;color: rgb(50, 50, 50); font-size: 14px;&quot;&gt;concatenation of data from one or more columns to create virtual columns, &lt;br style=&quot;font-size: 14px;&quot;&gt;join multiple tables to create SQL virtual tables&lt;br style=&quot;font-size: 14px;&quot;&gt;&lt;/span&gt;&lt;/font&gt;&lt;b style=&quot;font-size: 14px;&quot;&gt;modify analysis settings&lt;/b&gt; (e.g. threshold values)&lt;br style=&quot;font-size: 14px;&quot;&gt;&lt;b style=&quot;font-size: 14px;&quot;&gt;perform further analysis&lt;/b&gt; (data quality analysis, column analysis, column similarity analysis, &lt;br style=&quot;font-size: 14px;&quot;&gt;primary key analysis, relationship analysis, overlap analysis)" style="edgeStyle=orthogonalEdgeStyle;rounded=0;orthogonalLoop=1;jettySize=auto;html=1;strokeWidth=1;fontSize=14;align=left;exitX=0.5;exitY=0.5;exitDx=0;exitDy=0;exitPerimeter=0;" parent="1" source="m7c62PFlQVcXENg2-71l-76" edge="1">
          <mxGeometry x="0.2911" y="-470" relative="1" as="geometry">
            <Array as="points">
              <mxPoint x="-635" y="970" />
            </Array>
            <mxPoint x="-470" y="-470" as="offset" />
            <mxPoint x="-460" y="970.0344827586209" as="sourcePoint" />
            <mxPoint x="469.5" y="970.0344827586209" as="targetPoint" />
          </mxGeometry>
        </mxCell>
        <mxCell id="m7c62PFlQVcXENg2-71l-76" value="User" style="shape=umlActor;verticalLabelPosition=bottom;verticalAlign=top;html=1;outlineConnect=0;fontSize=14;" parent="1" vertex="1">
          <mxGeometry x="-650" y="942" width="30" height="60" as="geometry" />
        </mxCell>
        <mxCell id="m7c62PFlQVcXENg2-71l-80" value="&lt;div style=&quot;text-align: left; font-size: 14px;&quot;&gt;create governance policy&lt;/div&gt;&lt;div style=&quot;text-align: left; font-size: 14px;&quot;&gt;create governance rules&lt;/div&gt;&lt;div style=&quot;text-align: left; font-size: 14px;&quot;&gt;assign governance rule to business terms, classification, reference data&lt;/div&gt;&lt;div style=&quot;text-align: left; font-size: 14px;&quot;&gt;assign the governance rule to a category&lt;/div&gt;" style="edgeStyle=orthogonalEdgeStyle;rounded=0;orthogonalLoop=1;jettySize=auto;html=1;strokeWidth=1;fontSize=14;exitX=0.5;exitY=0.5;exitDx=0;exitDy=0;exitPerimeter=0;" parent="1" edge="1" source="m7c62PFlQVcXENg2-71l-79">
          <mxGeometry x="0.871" y="560" relative="1" as="geometry">
            <mxPoint x="-460" y="1220" as="sourcePoint" />
            <mxPoint x="470" y="1219.9354838709678" as="targetPoint" />
            <Array as="points" />
            <mxPoint x="-560" y="560" as="offset" />
          </mxGeometry>
        </mxCell>
        <mxCell id="m7c62PFlQVcXENg2-71l-81" value="&lt;font style=&quot;font-size: 14px;&quot;&gt;create data protection rules (&lt;font color=&quot;#323232&quot; style=&quot;font-size: 14px;&quot;&gt;A data protection rule consists of criteria that specify &lt;/font&gt;&lt;br style=&quot;font-size: 14px;&quot;&gt;&lt;font color=&quot;#323232&quot; style=&quot;font-size: 14px;&quot;&gt;which data to control and an action that specifies how to prevent access to that data)&lt;/font&gt;&lt;br style=&quot;font-size: 14px;&quot;&gt;&lt;font color=&quot;#323232&quot; style=&quot;font-size: 14px;&quot;&gt;Actions: (1) Deny access (2) Mask data (redact/substitute/obfuscate)&lt;/font&gt;&lt;br style=&quot;font-size: 14px;&quot;&gt;&lt;/font&gt;" style="edgeStyle=orthogonalEdgeStyle;rounded=0;orthogonalLoop=1;jettySize=auto;html=1;strokeWidth=1;fontSize=14;align=left;exitX=0.5;exitY=0.5;exitDx=0;exitDy=0;exitPerimeter=0;" parent="1" source="m7c62PFlQVcXENg2-71l-79" edge="1">
          <mxGeometry x="-0.6289" relative="1" as="geometry">
            <mxPoint x="470" y="1310" as="targetPoint" />
            <Array as="points">
              <mxPoint x="-560" y="1220" />
              <mxPoint x="-560" y="1310" />
              <mxPoint x="470" y="1310" />
            </Array>
            <mxPoint as="offset" />
          </mxGeometry>
        </mxCell>
        <mxCell id="m7c62PFlQVcXENg2-71l-82" style="edgeStyle=orthogonalEdgeStyle;rounded=0;orthogonalLoop=1;jettySize=auto;html=1;strokeWidth=1;fontSize=14;exitX=0.5;exitY=0.5;exitDx=0;exitDy=0;exitPerimeter=0;" parent="1" source="m7c62PFlQVcXENg2-71l-79" edge="1">
          <mxGeometry relative="1" as="geometry">
            <Array as="points">
              <mxPoint x="-560" y="1220" />
              <mxPoint x="-560" y="1130" />
              <mxPoint x="470" y="1130" />
            </Array>
            <mxPoint x="-515.0000000000002" y="1224" as="sourcePoint" />
            <mxPoint x="470" y="1130" as="targetPoint" />
          </mxGeometry>
        </mxCell>
        <mxCell id="m7c62PFlQVcXENg2-71l-83" value="&lt;div style=&quot;text-align: left; font-size: 14px;&quot;&gt;create business terms, import from a csv file,&amp;nbsp;&lt;/div&gt;&lt;div style=&quot;text-align: left; font-size: 14px;&quot;&gt;define relationships among business terms&lt;/div&gt;&lt;div style=&quot;text-align: left; font-size: 14px;&quot;&gt;relate a term to a classification or data class&lt;/div&gt;" style="edgeLabel;html=1;align=center;verticalAlign=middle;resizable=0;points=[];fontSize=14;" parent="m7c62PFlQVcXENg2-71l-82" vertex="1" connectable="0">
          <mxGeometry x="-0.1465" y="2" relative="1" as="geometry">
            <mxPoint x="-61" as="offset" />
          </mxGeometry>
        </mxCell>
        <mxCell id="m7c62PFlQVcXENg2-71l-79" value="user with&lt;br style=&quot;font-size: 14px;&quot;&gt;&lt;span style=&quot;color: rgb(50, 50, 50); background-color: rgb(255, 255, 255); font-size: 14px;&quot;&gt;Manage governance &lt;br style=&quot;font-size: 14px;&quot;&gt;artifact permission&lt;/span&gt;" style="shape=umlActor;verticalLabelPosition=bottom;verticalAlign=top;html=1;outlineConnect=0;fontSize=14;" parent="1" vertex="1">
          <mxGeometry x="-650" y="1190" width="30" height="60" as="geometry" />
        </mxCell>
        <mxCell id="m7c62PFlQVcXENg2-71l-86" value="add business glossary (category and business terms)" style="edgeStyle=orthogonalEdgeStyle;rounded=0;orthogonalLoop=1;jettySize=auto;html=1;strokeWidth=1;fontSize=14;entryX=0.523;entryY=0.573;entryDx=0;entryDy=0;entryPerimeter=0;" parent="1" edge="1" target="m7c62PFlQVcXENg2-71l-5" source="m7c62PFlQVcXENg2-71l-85">
          <mxGeometry relative="1" as="geometry">
            <mxPoint x="-410" y="1352" as="sourcePoint" />
            <mxPoint x="270" y="1375" as="targetPoint" />
            <Array as="points" />
          </mxGeometry>
        </mxCell>
        <mxCell id="m7c62PFlQVcXENg2-71l-85" value="Industry accelerators" style="shape=dataStorage;whiteSpace=wrap;html=1;fontSize=14;" parent="1" vertex="1">
          <mxGeometry x="-655" y="1350" width="100" height="50" as="geometry" />
        </mxCell>
        <mxCell id="m7c62PFlQVcXENg2-71l-90" value="xml format" style="edgeStyle=orthogonalEdgeStyle;rounded=0;orthogonalLoop=1;jettySize=auto;html=1;strokeWidth=1;fontSize=14;dashed=1;exitX=1;exitY=0.5;exitDx=0;exitDy=0;" parent="1" edge="1" source="m7c62PFlQVcXENg2-71l-89">
          <mxGeometry relative="1" as="geometry">
            <mxPoint x="-240" y="1480" as="targetPoint" />
            <mxPoint x="-413.5" y="1305" as="sourcePoint" />
            <Array as="points">
              <mxPoint x="-555" y="1450" />
              <mxPoint x="-240" y="1450" />
            </Array>
          </mxGeometry>
        </mxCell>
        <mxCell id="m7c62PFlQVcXENg2-71l-89" value="local storage" style="shape=dataStorage;whiteSpace=wrap;html=1;fontSize=14;" parent="1" vertex="1">
          <mxGeometry x="-655" y="1430" width="100" height="50" as="geometry" />
        </mxCell>
        <mxCell id="m7c62PFlQVcXENg2-71l-93" style="edgeStyle=orthogonalEdgeStyle;rounded=0;orthogonalLoop=1;jettySize=auto;html=1;strokeWidth=1;fontSize=14;" parent="1" source="m7c62PFlQVcXENg2-71l-92" edge="1">
          <mxGeometry relative="1" as="geometry">
            <mxPoint x="471.1852213541667" y="1830" as="targetPoint" />
          </mxGeometry>
        </mxCell>
        <mxCell id="m7c62PFlQVcXENg2-71l-94" value="comply with data regulations (GDPR/CCPA/FERPA)&lt;br style=&quot;font-size: 14px;&quot;&gt;create a regulatory compliance project, perform business term &lt;br style=&quot;font-size: 14px;&quot;&gt;mapping and data asset mapping (auto/manual)" style="edgeLabel;html=1;align=left;verticalAlign=middle;resizable=0;points=[];fontSize=14;" parent="m7c62PFlQVcXENg2-71l-93" vertex="1" connectable="0">
          <mxGeometry x="-0.3476" y="1" relative="1" as="geometry">
            <mxPoint x="-180.33" y="1" as="offset" />
          </mxGeometry>
        </mxCell>
        <mxCell id="m7c62PFlQVcXENg2-71l-92" value="&lt;font style=&quot;font-size: 14px;&quot;&gt;&lt;span class=&quot;keyword&quot; style=&quot;box-sizing: inherit; margin: 0px; padding: 0px; border: 0px; vertical-align: baseline; color: rgb(50, 50, 50); background-color: rgb(255, 255, 255); font-size: 14px;&quot;&gt;Regulatory Accelerator&lt;/span&gt;&lt;span style=&quot;color: rgb(50, 50, 50); background-color: rgb(255, 255, 255); font-size: 14px;&quot;&gt;&amp;nbsp;service&lt;/span&gt;&lt;/font&gt;" style="shape=process;whiteSpace=wrap;html=1;backgroundOutline=1;fontSize=14;" parent="1" vertex="1">
          <mxGeometry x="-670" y="1800" width="165" height="60" as="geometry" />
        </mxCell>
        <mxCell id="IsnBaX-UXQkgkAbF29E4-1" value="&lt;b&gt;administrator tasks&lt;/b&gt;" style="shape=curlyBracket;whiteSpace=wrap;html=1;rounded=1;size=0;fontSize=14;" parent="1" vertex="1">
          <mxGeometry x="-582.5" y="-10" width="10" height="350" as="geometry" />
        </mxCell>
        <mxCell id="IsnBaX-UXQkgkAbF29E4-20" style="edgeStyle=orthogonalEdgeStyle;rounded=0;orthogonalLoop=1;jettySize=auto;html=1;fontSize=14;" parent="1" source="IsnBaX-UXQkgkAbF29E4-8" target="IsnBaX-UXQkgkAbF29E4-18" edge="1">
          <mxGeometry relative="1" as="geometry">
            <Array as="points">
              <mxPoint x="-260" y="1935" />
              <mxPoint x="-260" y="1987" />
            </Array>
          </mxGeometry>
        </mxCell>
        <mxCell id="IsnBaX-UXQkgkAbF29E4-23" value="metdata" style="edgeLabel;html=1;align=center;verticalAlign=middle;resizable=0;points=[];fontSize=14;" parent="IsnBaX-UXQkgkAbF29E4-20" vertex="1" connectable="0">
          <mxGeometry x="-0.4002" y="1" relative="1" as="geometry">
            <mxPoint as="offset" />
          </mxGeometry>
        </mxCell>
        <mxCell id="IsnBaX-UXQkgkAbF29E4-8" value="External Applications" style="shape=dataStorage;whiteSpace=wrap;html=1;fontSize=14;" parent="1" vertex="1">
          <mxGeometry x="-660" y="1895" width="100" height="80" as="geometry" />
        </mxCell>
        <mxCell id="IsnBaX-UXQkgkAbF29E4-21" style="edgeStyle=orthogonalEdgeStyle;rounded=0;orthogonalLoop=1;jettySize=auto;html=1;entryX=0;entryY=0.5;entryDx=0;entryDy=0;fontSize=14;" parent="1" source="IsnBaX-UXQkgkAbF29E4-9" target="IsnBaX-UXQkgkAbF29E4-18" edge="1">
          <mxGeometry relative="1" as="geometry">
            <Array as="points">
              <mxPoint x="-260" y="2042" />
              <mxPoint x="-260" y="1987" />
            </Array>
          </mxGeometry>
        </mxCell>
        <mxCell id="IsnBaX-UXQkgkAbF29E4-22" value="data models" style="edgeLabel;html=1;align=center;verticalAlign=middle;resizable=0;points=[];fontSize=14;" parent="IsnBaX-UXQkgkAbF29E4-21" vertex="1" connectable="0">
          <mxGeometry x="-0.4468" y="2" relative="1" as="geometry">
            <mxPoint as="offset" />
          </mxGeometry>
        </mxCell>
        <mxCell id="IsnBaX-UXQkgkAbF29E4-9" value="Databases" style="shape=cylinder;whiteSpace=wrap;html=1;boundedLbl=1;backgroundOutline=1;fontSize=14;" parent="1" vertex="1">
          <mxGeometry x="-647.5" y="1997" width="75" height="90" as="geometry" />
        </mxCell>
        <mxCell id="XwHpWZ4ftV7QXHC5Zp1C-1" style="edgeStyle=orthogonalEdgeStyle;rounded=0;orthogonalLoop=1;jettySize=auto;html=1;entryX=0.502;entryY=0.76;entryDx=0;entryDy=0;entryPerimeter=0;fontSize=14;" edge="1" parent="1" source="IsnBaX-UXQkgkAbF29E4-13">
          <mxGeometry relative="1" as="geometry">
            <mxPoint x="470.1999999999998" y="1987.8000000000002" as="targetPoint" />
          </mxGeometry>
        </mxCell>
        <mxCell id="XwHpWZ4ftV7QXHC5Zp1C-2" value="analyze, preview and share in the catalog" style="edgeLabel;html=1;align=center;verticalAlign=middle;resizable=0;points=[];fontSize=14;" vertex="1" connectable="0" parent="XwHpWZ4ftV7QXHC5Zp1C-1">
          <mxGeometry x="-0.1061" y="-1" relative="1" as="geometry">
            <mxPoint as="offset" />
          </mxGeometry>
        </mxCell>
        <mxCell id="IsnBaX-UXQkgkAbF29E4-13" value="Import metadata &lt;br style=&quot;font-size: 14px;&quot;&gt;in staging area" style="shape=step;perimeter=stepPerimeter;whiteSpace=wrap;html=1;fixedSize=1;fontSize=14;" parent="1" vertex="1">
          <mxGeometry x="10" y="1943" width="150" height="80" as="geometry" />
        </mxCell>
        <mxCell id="IsnBaX-UXQkgkAbF29E4-24" style="edgeStyle=orthogonalEdgeStyle;rounded=0;orthogonalLoop=1;jettySize=auto;html=1;fontSize=14;" parent="1" source="IsnBaX-UXQkgkAbF29E4-18" target="IsnBaX-UXQkgkAbF29E4-13" edge="1">
          <mxGeometry relative="1" as="geometry" />
        </mxCell>
        <mxCell id="IsnBaX-UXQkgkAbF29E4-18" value="&lt;span style=&quot;font-size: 14px; background-color: rgb(255, 255, 255);&quot;&gt;metadata import bridges&lt;br style=&quot;font-size: 14px;&quot;&gt;metadata import connectors&lt;br style=&quot;font-size: 14px;&quot;&gt;OpenIGC bridges&lt;/span&gt;" style="rounded=1;whiteSpace=wrap;html=1;fontSize=14;" parent="1" vertex="1">
          <mxGeometry x="-224" y="1948" width="200" height="70" as="geometry" />
        </mxCell>
        <mxCell id="IsnBaX-UXQkgkAbF29E4-27" style="edgeStyle=orthogonalEdgeStyle;rounded=0;orthogonalLoop=1;jettySize=auto;html=1;dashed=1;fontSize=14;" parent="1" source="IsnBaX-UXQkgkAbF29E4-26" target="IsnBaX-UXQkgkAbF29E4-8" edge="1">
          <mxGeometry relative="1" as="geometry" />
        </mxCell>
        <mxCell id="IsnBaX-UXQkgkAbF29E4-26" value="&lt;h1 style=&quot;font-size: 14px;&quot;&gt;&lt;font style=&quot;font-size: 14px;&quot;&gt;External Applications&lt;/font&gt;&lt;/h1&gt;&lt;div style=&quot;font-size: 14px;&quot;&gt;&lt;font style=&quot;font-size: 14px;&quot;&gt;&lt;b style=&quot;font-size: 14px;&quot;&gt;Bridges&lt;/b&gt;&lt;/font&gt;&lt;/div&gt;&lt;div style=&quot;font-size: 14px;&quot;&gt;&lt;font style=&quot;font-size: 14px;&quot;&gt;ErWin, IBM Cognos, InfoSphere Data Architect, DB2, Microsoft SSRS, Microstrategy, Oracle, QlikView, SAP, Tableau,&amp;nbsp;&lt;/font&gt;&lt;/div&gt;&lt;div style=&quot;font-size: 14px;&quot;&gt;&lt;font style=&quot;font-size: 14px;&quot;&gt;&lt;b style=&quot;font-size: 14px;&quot;&gt;Connectors&lt;/b&gt;&lt;/font&gt;&lt;/div&gt;&lt;div style=&quot;font-size: 14px;&quot;&gt;&lt;font style=&quot;font-size: 14px;&quot;&gt;Amazon S3, HDFS, Greenplum, JDBC, ODBC, Oracle, Netezza, Teradata, DB2&lt;/font&gt;&lt;/div&gt;&lt;div style=&quot;font-size: 14px;&quot;&gt;&lt;font style=&quot;font-size: 14px;&quot;&gt;&lt;b style=&quot;font-size: 14px;&quot;&gt;OpenIGC&lt;/b&gt;&lt;/font&gt;&lt;/div&gt;&lt;div style=&quot;font-size: 14px;&quot;&gt;&lt;font style=&quot;font-size: 14px;&quot;&gt;Informatica Power Center, Talend, SSIS, Files (Excel, XML, Avro, Parquet, JSON), Oracle and Teradata DML scripts&lt;/font&gt;&lt;/div&gt;&lt;div style=&quot;font-size: 14px;&quot;&gt;&lt;font style=&quot;font-size: 14px;&quot;&gt;&lt;br style=&quot;font-size: 14px;&quot;&gt;&lt;/font&gt;&lt;/div&gt;&lt;div style=&quot;font-size: 14px;&quot;&gt;&lt;font style=&quot;font-size: 14px;&quot;&gt;&lt;br style=&quot;font-size: 14px;&quot;&gt;&lt;/font&gt;&lt;/div&gt;" style="text;html=1;strokeColor=#36393d;fillColor=#eeeeee;spacing=5;spacingTop=-20;whiteSpace=wrap;overflow=hidden;rounded=0;fontSize=14;" parent="1" vertex="1">
          <mxGeometry x="-1040" y="1795" width="290" height="280" as="geometry" />
        </mxCell>
        <mxCell id="IsnBaX-UXQkgkAbF29E4-28" value="User" style="shape=umlActor;verticalLabelPosition=bottom;verticalAlign=top;html=1;outlineConnect=0;fontSize=14;" parent="1" vertex="1">
          <mxGeometry x="-635" y="2107" width="30" height="60" as="geometry" />
        </mxCell>
      </root>
    </mxGraphModel>
  </diagram>
</mxfile>
